<svg xmlns="http://www.w3.org/2000/svg" viewBox="0 0 264.77 249.5"><defs><style>.cls-1,.cls-3{fill:#293f52;}.cls-2{fill:#9d9d9c;}.cls-3{font-size:90px;stroke:#fff;stroke-miterlimit:10;stroke-width:4px;font-family:ErasITC-Bold, Eras Bold ITC;}</style></defs><title>logo</title><g id="Ebene_1" data-name="Ebene 1"><path class="cls-1" d="M187.94,369.24c7.72.14,14.95.12,22.16.5a4.5,4.5,0,0,0,4.69-2.44c2.16-3.35,4.65-6.49,7.05-9.68a1.94,1.94,0,0,0,.37-2q-4.51-12.44-9-24.89c-.86-2.37-.9-2.37,1-4a131.06,131.06,0,0,1,19.42-14.16,1.69,1.69,0,0,1,2.22.16c7.19,5.51,14.42,11,21.61,16.46a2.54,2.54,0,0,0,2.72.4c4.17-1.47,8.39-2.83,12.61-4.17a2.25,2.25,0,0,0,1.7-1.7q3.67-12.87,7.42-25.72c.53-1.84.59-1.82,2.53-2a129.88,129.88,0,0,1,17.05-.56c2.46,0,4.91.35,7.37.51a1.86,1.86,0,0,1,1.82,1.53q3.28,11,6.62,21.9c.44,1.47.9,2.93,1.31,4.41a1.85,1.85,0,0,0,1.4,1.38c4.48,1.4,8.95,2.82,13.4,4.3a1.93,1.93,0,0,0,2-.46l18.06-14,3.39-2.63c1.25-1,1.32-1,2.73-.17a124.84,124.84,0,0,1,16.17,11.18c1.32,1.07,2.58,2.2,3.89,3.29a1.88,1.88,0,0,1,.62,2.37c-3.07,8.66-6.09,17.34-9.14,26a1.74,1.74,0,0,0,.31,1.82q4.11,5.46,8.11,11a2.25,2.25,0,0,0,2.06,1.11q8.68-.3,17.36-.56c3.46-.1,6.92-.15,10.38-.24a1.64,1.64,0,0,1,1.69,1.12,128.48,128.48,0,0,1,7.91,24,1.8,1.8,0,0,1-.88,2.1c-7.27,5-14.5,10.05-21.8,15a3.55,3.55,0,0,0-1.7,3.62c.19,4.18.1,8.39,0,12.58a2,2,0,0,0,1,2c7.56,5.1,15.1,10.25,22.67,15.33a1.91,1.91,0,0,1,1,2.3,126.18,126.18,0,0,1-7.71,24,1.47,1.47,0,0,1-1.53,1l-13.07-.34-1.7,0c-4.46-.1-8.91-.22-13.37-.27a1.84,1.84,0,0,0-1.31.67Q376.17,477,372,483a2,2,0,0,0-.18,1.55c2.2,6.22,4.45,12.41,6.69,18.61.9,2.51,1.76,5,2.69,7.52a1.79,1.79,0,0,1-.58,2.21,132.41,132.41,0,0,1-20.52,15,1.33,1.33,0,0,1-1.71-.12q-11.1-8.5-22.23-17a1.83,1.83,0,0,0-1.93-.23q-6.57,2.22-13.18,4.33a2,2,0,0,0-1.48,1.54q-3.69,12.76-7.42,25.51c-.1.35-.23.7-.32,1.05a1.51,1.51,0,0,1-1.49,1.24c-2.62.19-5.24.58-7.86.57-5.62,0-11.24-.21-16.86-.37-1.76,0-1.87-.15-2.37-1.82-2.55-8.45-5.11-16.89-7.6-25.36a3,3,0,0,0-2.36-2.31q-6.09-1.75-12.08-3.85a2.73,2.73,0,0,0-3,.46c-7,5.49-14,10.9-21,16.38a2.16,2.16,0,0,1-2.78.21A123,123,0,0,1,217.09,516c-1-.81-1.92-1.65-2.88-2.47a1.59,1.59,0,0,1-.52-1.88c1-2.83,1.94-5.67,3-8.47a4.22,4.22,0,0,1,1.29-1.61q12.47-10.31,25-20.57c.57-.47,1.17-.89,1.69-1.4.75-.75,1.35-.62,2.15,0,2.24,1.78,4.48,3.58,6.84,5.18a75.7,75.7,0,0,0,36,12.87,77.31,77.31,0,0,0,35.58-4.94A77.84,77.84,0,0,0,347.66,361a77.61,77.61,0,0,0-31.15-16.28,75,75,0,0,0-22.86-2.42,77.94,77.94,0,0,0-65.2,40.89,76.28,76.28,0,0,0-8.91,28.92,77.16,77.16,0,0,0,6.24,39.49c.81,1.83,1.7,3.61,2.61,5.39a1.18,1.18,0,0,1-.37,1.71c-4.77,3.84-9.56,7.66-14.26,11.6-1.45,1.22-3.11,1.07-4.72,1.17-2.89.18-5.79.16-8.68.25-5.22.16-10.44.33-15.66.55a1.53,1.53,0,0,1-1.67-1.09c-1.1-2.71-2.38-5.37-3.28-8.15-1.63-5-3.06-10.13-4.5-15.22-.52-1.82-.43-1.87,1.13-3,7.33-5.09,14.65-10.19,22-15.24A2.59,2.59,0,0,0,199.5,427c-.09-3.53-.15-7.05-.19-10.58a20.07,20.07,0,0,1,.14-2.59,1.92,1.92,0,0,0-.92-2q-9.43-6.38-18.83-12.81c-1.32-.9-2.59-1.87-3.93-2.75a1.85,1.85,0,0,1-.87-2.3c1.53-5.34,3-10.71,4.59-16,.78-2.54,1.94-5,2.89-7.45a1.79,1.79,0,0,1,2-1.3C185.71,369.28,187.08,369.24,187.94,369.24Z" transform="translate(-154.46 -295.29)"/><path class="cls-2" d="M296.44,486.58a66.29,66.29,0,0,1-45.79-18.45l-87,71.24-9.24-11.25,86.71-71.22c-12.3-19.19-14.74-45-3.67-66.69a66.36,66.36,0,0,1,89.15-29h0a66.27,66.27,0,0,1-30.2,125.33Zm.67-114A48.27,48.27,0,1,0,319,377.82,48.33,48.33,0,0,0,297.11,372.56Z" transform="translate(-154.46 -295.29)"/></g><g id="Ebene_2" data-name="Ebene 2"><text class="cls-3" transform="translate(51.8 154.07)">CCC</text></g></svg>